<svg xmlns="http://www.w3.org/2000/svg" viewBox="0 0 600 600"><defs><linearGradient id="bg" x1="0" y1="0" x2="1" y2="1"><stop offset="0%" stop-color="#080a0b"/><stop offset="100%" stop-color="#030303"/></linearGradient><linearGradient id="au" x1="0" y1="0" x2="1" y2="1"><stop offset="0%" stop-color="#f4ddb0"/><stop offset="100%" stop-color="#8e6a2f"/></linearGradient></defs><rect width="600" height="600" fill="url(#bg)"/><!-- Debussy: impressionist scattered dots --><g opacity="0.9"><!-- Clusters of gold dots in varying sizes --><circle cx="150" cy="180" r="12" fill="#d1a857" opacity="0.7"/><circle cx="200" cy="150" r="6" fill="#d1a857" opacity="0.5"/><circle cx="120" cy="220" r="4" fill="#f2d79f" opacity="0.6"/><circle cx="180" cy="240" r="8" fill="#c6943f" opacity="0.6"/><circle cx="300" cy="160" r="16" fill="#d1a857" opacity="0.65"/><circle cx="350" cy="190" r="5" fill="#f2d79f" opacity="0.55"/><circle cx="260" cy="200" r="7" fill="#c6943f" opacity="0.5"/><circle cx="420" cy="170" r="10" fill="#d1a857" opacity="0.6"/><circle cx="460" cy="200" r="4" fill="#f2d79f" opacity="0.5"/><circle cx="380" cy="240" r="9" fill="#c6943f" opacity="0.55"/><circle cx="100" cy="300" r="7" fill="#d1a857" opacity="0.5"/><circle cx="160" cy="330" r="14" fill="#c6943f" opacity="0.55"/><circle cx="220" cy="300" r="5" fill="#f2d79f" opacity="0.6"/><circle cx="280" cy="340" r="11" fill="#d1a857" opacity="0.7"/><circle cx="340" cy="300" r="6" fill="#f2d79f" opacity="0.5"/><circle cx="400" cy="320" r="13" fill="#c6943f" opacity="0.55"/><circle cx="480" cy="290" r="7" fill="#d1a857" opacity="0.5"/><circle cx="500" cy="350" r="4" fill="#f2d79f" opacity="0.6"/><circle cx="130" cy="400" r="9" fill="#d1a857" opacity="0.45"/><circle cx="200" cy="430" r="5" fill="#c6943f" opacity="0.4"/><circle cx="290" cy="410" r="15" fill="#d1a857" opacity="0.5"/><circle cx="380" cy="400" r="6" fill="#f2d79f" opacity="0.45"/><circle cx="450" cy="420" r="10" fill="#c6943f" opacity="0.5"/><circle cx="520" cy="390" r="4" fill="#d1a857" opacity="0.4"/></g><text x="300" y="530" text-anchor="middle" font-family="Georgia,serif" font-size="22" fill="#f2d79f" letter-spacing="8">DEBUSSY</text><text x="300" y="558" text-anchor="middle" font-family="Georgia,serif" font-size="13" fill="#c6943f" letter-spacing="6">IMAGES</text></svg>