<svg xmlns="http://www.w3.org/2000/svg" viewBox="0 0 600 600"><defs><linearGradient id="bg" x1="0" y1="0" x2="1" y2="1"><stop offset="0%" stop-color="#14110a"/><stop offset="100%" stop-color="#040303"/></linearGradient><linearGradient id="au" x1="0" y1="0" x2="1" y2="1"><stop offset="0%" stop-color="#f4ddb0"/><stop offset="100%" stop-color="#8e6a2f"/></linearGradient></defs><rect width="600" height="600" fill="url(#bg)"/><!-- Baroque: ornate double spiral --><path d="M300,300 Q310,285 325,285 Q345,285 345,300 Q345,318 325,318 Q308,318 305,305 Q302,290 312,280 Q325,265 345,265 Q370,265 380,285 Q390,305 380,330 Q368,358 342,368 Q310,378 282,365 Q250,350 242,320 Q232,284 250,254 Q270,220 305,210 Q345,198 378,215 Q415,233 425,270" fill="none" stroke="url(#au)" stroke-width="2.5" opacity="0.9"/><path d="M300,300 Q290,285 275,285 Q255,285 255,300 Q255,318 275,318 Q292,318 295,305 Q298,290 288,280 Q275,265 255,265 Q230,265 220,285 Q210,305 220,330 Q232,358 258,368 Q290,378 318,365 Q350,350 358,320 Q368,284 350,254 Q330,220 295,210 Q255,198 222,215 Q185,233 175,270" fill="none" stroke="#c6943f" stroke-width="1.2" opacity="0.5"/><circle cx="300" cy="300" r="6" fill="#f2d79f" opacity="0.9"/><text x="300" y="515" text-anchor="middle" font-family="Georgia,serif" font-size="22" fill="#f2d79f" letter-spacing="5">BAROQUE</text><text x="300" y="543" text-anchor="middle" font-family="Georgia,serif" font-size="13" fill="#c6943f" letter-spacing="5">MASTERWORKS</text></svg>