<svg xmlns="http://www.w3.org/2000/svg" viewBox="0 0 600 600"><defs><linearGradient id="bg" x1="0" y1="0" x2="1" y2="1"><stop offset="0%" stop-color="#100808"/><stop offset="100%" stop-color="#030202"/></linearGradient><linearGradient id="au" x1="0" y1="0" x2="1" y2="1"><stop offset="0%" stop-color="#f4ddb0"/><stop offset="100%" stop-color="#8e6a2f"/></linearGradient></defs><rect width="600" height="600" fill="url(#bg)"/><!-- Rachmaninoff: waveform --><path d="M0,300 Q30,300 60,240 Q90,180 120,300 Q150,420 180,300 Q210,180 240,280 Q270,380 300,260 Q330,140 360,300 Q390,460 420,300 Q450,140 480,280 Q510,420 540,300 Q570,180 600,300" fill="none" stroke="url(#au)" stroke-width="3" opacity="0.9"/><path d="M0,300 Q30,300 60,260 Q90,220 120,300 Q150,380 180,300 Q210,220 240,290 Q270,360 300,275 Q330,190 360,300 Q390,410 420,300 Q450,190 480,285 Q510,380 540,300 Q570,220 600,300" fill="none" stroke="#d1a857" stroke-width="1" opacity="0.35"/><line x1="0" y1="300" x2="600" y2="300" stroke="#c6943f" stroke-width="0.8" opacity="0.2"/><text x="300" y="530" text-anchor="middle" font-family="Georgia,serif" font-size="22" fill="#f2d79f" letter-spacing="6">RACHMANINOFF</text><text x="300" y="558" text-anchor="middle" font-family="Georgia,serif" font-size="13" fill="#c6943f" letter-spacing="3">PIANO CONCERTO NO. 2</text></svg>