<svg xmlns="http://www.w3.org/2000/svg" viewBox="0 0 600 600"><defs><linearGradient id="bg" x1="0" y1="0" x2="0" y2="1"><stop offset="0%" stop-color="#080b0a"/><stop offset="100%" stop-color="#030404"/></linearGradient><linearGradient id="au" x1="0" y1="0" x2="1" y2="1"><stop offset="0%" stop-color="#f4ddb0"/><stop offset="100%" stop-color="#8e6a2f"/></linearGradient></defs><rect width="600" height="600" fill="url(#bg)"/><!-- Sibelius: forest vertical lines --><line x1="60" y1="100" x2="60" y2="520" stroke="#c6943f" stroke-width="1" opacity="0.4"/><line x1="110" y1="60" x2="110" y2="520" stroke="#c6943f" stroke-width="1.5" opacity="0.55"/><line x1="160" y1="90" x2="160" y2="520" stroke="#c6943f" stroke-width="1" opacity="0.4"/><line x1="210" y1="50" x2="210" y2="520" stroke="#d1a857" stroke-width="2" opacity="0.65"/><line x1="260" y1="80" x2="260" y2="520" stroke="#c6943f" stroke-width="1" opacity="0.4"/><line x1="300" y1="40" x2="300" y2="520" stroke="#f2d79f" stroke-width="2.5" opacity="0.85"/><line x1="340" y1="75" x2="340" y2="520" stroke="#c6943f" stroke-width="1" opacity="0.4"/><line x1="390" y1="60" x2="390" y2="520" stroke="#d1a857" stroke-width="2" opacity="0.6"/><line x1="440" y1="95" x2="440" y2="520" stroke="#c6943f" stroke-width="1" opacity="0.45"/><line x1="490" y1="70" x2="490" y2="520" stroke="#c6943f" stroke-width="1.5" opacity="0.5"/><line x1="540" y1="100" x2="540" y2="520" stroke="#c6943f" stroke-width="1" opacity="0.35"/><!-- Violin bow arc across --><path d="M60,300 Q300,240 540,300" fill="none" stroke="url(#au)" stroke-width="2.5" opacity="0.9"/><text x="300" y="560" text-anchor="middle" font-family="Georgia,serif" font-size="22" fill="#f2d79f" letter-spacing="8">SIBELIUS</text><text x="300" y="585" text-anchor="middle" font-family="Georgia,serif" font-size="13" fill="#c6943f" letter-spacing="4">VIOLIN CONCERTO</text></svg>