<svg xmlns="http://www.w3.org/2000/svg" viewBox="0 0 600 600"><defs><radialGradient id="rg" cx="50%" cy="50%"><stop offset="0%" stop-color="#0d0d0d"/><stop offset="100%" stop-color="#020202"/></radialGradient><linearGradient id="au" x1="0" y1="0" x2="1" y2="1"><stop offset="0%" stop-color="#f4ddb0"/><stop offset="100%" stop-color="#8e6a2f"/></linearGradient></defs><rect width="600" height="600" fill="url(#rg)"/><!-- Mahler: spiral --><path d="M300,300 Q320,280 340,300 Q360,320 340,340 Q320,360 295,345 Q265,330 258,300 Q250,265 268,238 Q290,210 320,205 Q360,198 390,218 Q420,240 428,275 Q436,315 420,350 Q400,390 368,410 Q330,428 290,428 Q240,428 205,408 Q165,384 148,345 Q128,300 140,255 Q156,200 195,168 Q240,132 295,125 Q355,118 405,143 Q455,170 480,220" fill="none" stroke="url(#au)" stroke-width="2.5" opacity="0.9"/><circle cx="300" cy="300" r="5" fill="#f2d79f" opacity="0.9"/><text x="300" y="520" text-anchor="middle" font-family="Georgia,serif" font-size="22" fill="#f2d79f" letter-spacing="8">MAHLER</text><text x="300" y="548" text-anchor="middle" font-family="Georgia,serif" font-size="13" fill="#c6943f" letter-spacing="4">SYMPHONY NO. 5</text></svg>