<svg xmlns="http://www.w3.org/2000/svg" viewBox="0 0 600 600"><defs><linearGradient id="bg" x1="0" y1="0" x2="1" y2="1"><stop offset="0%" stop-color="#130f08"/><stop offset="100%" stop-color="#050503"/></linearGradient><linearGradient id="au" x1="0" y1="0" x2="0" y2="1"><stop offset="0%" stop-color="#f4ddb0"/><stop offset="100%" stop-color="#8e6a2f"/></linearGradient></defs><rect width="600" height="600" fill="url(#bg)"/><!-- Classical column --><rect x="252" y="100" width="96" height="360" rx="0" fill="none" stroke="url(#au)" stroke-width="1.5" opacity="0.7"/><line x1="252" y1="100" x2="348" y2="100" stroke="url(#au)" stroke-width="2.5" opacity="0.9"/><line x1="252" y1="460" x2="348" y2="460" stroke="url(#au)" stroke-width="2.5" opacity="0.9"/><line x1="230" y1="460" x2="370" y2="460" stroke="url(#au)" stroke-width="2" opacity="0.85"/><line x1="230" y1="475" x2="370" y2="475" stroke="url(#au)" stroke-width="1.2" opacity="0.6"/><line x1="230" y1="488" x2="370" y2="488" stroke="url(#au)" stroke-width="1" opacity="0.4"/><line x1="235" y1="80" x2="365" y2="80" stroke="url(#au)" stroke-width="2" opacity="0.85"/><line x1="235" y1="68" x2="365" y2="68" stroke="url(#au)" stroke-width="1.2" opacity="0.6"/><!-- Column fluting lines --><line x1="268" y1="108" x2="268" y2="452" stroke="#c6943f" stroke-width="0.8" opacity="0.4"/><line x1="284" y1="108" x2="284" y2="452" stroke="#c6943f" stroke-width="0.8" opacity="0.4"/><line x1="300" y1="108" x2="300" y2="452" stroke="#c6943f" stroke-width="0.8" opacity="0.4"/><line x1="316" y1="108" x2="316" y2="452" stroke="#c6943f" stroke-width="0.8" opacity="0.4"/><line x1="332" y1="108" x2="332" y2="452" stroke="#c6943f" stroke-width="0.8" opacity="0.4"/><text x="300" y="540" text-anchor="middle" font-family="Georgia,serif" font-size="22" fill="#f2d79f" letter-spacing="8">MOZART</text><text x="300" y="568" text-anchor="middle" font-family="Georgia,serif" font-size="13" fill="#c6943f" letter-spacing="4">PIANO CONCERTOS</text></svg>