<svg xmlns="http://www.w3.org/2000/svg" viewBox="0 0 600 600"><defs><linearGradient id="bg" x1="0" y1="0" x2="0" y2="1"><stop offset="0%" stop-color="#0a0d12"/><stop offset="100%" stop-color="#030508"/></linearGradient><linearGradient id="au" x1="0" y1="0" x2="1" y2="1"><stop offset="0%" stop-color="#f4ddb0"/><stop offset="100%" stop-color="#7a5a25"/></linearGradient></defs><rect width="600" height="600" fill="url(#bg)"/><g opacity="0.85"><!-- Winter landscape: horizontal lines suggesting snow/horizon --><line x1="0" y1="480" x2="600" y2="480" stroke="#d1a857" stroke-width="2" opacity="0.7"/><line x1="0" y1="460" x2="600" y2="460" stroke="#c4b89a" stroke-width="0.8" opacity="0.3"/><line x1="0" y1="440" x2="600" y2="440" stroke="#c4b89a" stroke-width="0.8" opacity="0.2"/><path d="M0 420 Q150 380 300 410 T600 390" fill="none" stroke="#c4b89a" stroke-width="1" opacity="0.35"/><path d="M0 350 Q200 320 400 355 T600 335" fill="none" stroke="#c4b89a" stroke-width="1" opacity="0.25"/></g><!-- Bare trees --><line x1="120" y1="480" x2="120" y2="200" stroke="#d1a857" stroke-width="2" opacity="0.6"/><line x1="120" y1="200" x2="80" y2="120" stroke="#d1a857" stroke-width="1.5" opacity="0.5"/><line x1="120" y1="200" x2="160" y2="110" stroke="#d1a857" stroke-width="1.5" opacity="0.5"/><line x1="120" y1="260" x2="72" y2="210" stroke="#d1a857" stroke-width="1" opacity="0.4"/><line x1="120" y1="260" x2="168" y2="220" stroke="#d1a857" stroke-width="1" opacity="0.4"/><line x1="420" y1="480" x2="420" y2="230" stroke="#d1a857" stroke-width="2" opacity="0.5"/><line x1="420" y1="230" x2="380" y2="150" stroke="#d1a857" stroke-width="1.5" opacity="0.4"/><line x1="420" y1="230" x2="460" y2="140" stroke="#d1a857" stroke-width="1.5" opacity="0.4"/><text x="300" y="545" text-anchor="middle" font-family="Georgia,serif" font-size="22" fill="#f2d79f" letter-spacing="8">SCHUBERT</text><text x="300" y="572" text-anchor="middle" font-family="Georgia,serif" font-size="13" fill="#c6943f" letter-spacing="4">WINTERREISE</text></svg>