<svg xmlns="http://www.w3.org/2000/svg" viewBox="0 0 600 600"><defs><linearGradient id="bg" x1="0" y1="0" x2="1" y2="1"><stop offset="0%" stop-color="#0f0d08"/><stop offset="100%" stop-color="#030302"/></linearGradient><linearGradient id="au" x1="0" y1="0" x2="0" y2="1"><stop offset="0%" stop-color="#f4ddb0"/><stop offset="100%" stop-color="#8e6a2f"/></linearGradient></defs><rect width="600" height="600" fill="url(#bg)"/><!-- Ravel: Art Deco fan --><g transform="translate(300,520)"><line x1="0" y1="0" x2="0" y2="-380" stroke="url(#au)" stroke-width="2" opacity="0.9"/><line x1="0" y1="0" x2="-66" y2="-374" stroke="url(#au)" stroke-width="1.5" opacity="0.8"/><line x1="0" y1="0" x2="-130" y2="-354" stroke="url(#au)" stroke-width="1.5" opacity="0.7"/><line x1="0" y1="0" x2="-190" y2="-324" stroke="url(#au)" stroke-width="1.2" opacity="0.6"/><line x1="0" y1="0" x2="-244" y2="-283" stroke="url(#au)" stroke-width="1" opacity="0.5"/><line x1="0" y1="0" x2="66" y2="-374" stroke="url(#au)" stroke-width="1.5" opacity="0.8"/><line x1="0" y1="0" x2="130" y2="-354" stroke="url(#au)" stroke-width="1.5" opacity="0.7"/><line x1="0" y1="0" x2="190" y2="-324" stroke="url(#au)" stroke-width="1.2" opacity="0.6"/><line x1="0" y1="0" x2="244" y2="-283" stroke="url(#au)" stroke-width="1" opacity="0.5"/><!-- Fan arcs --><path d="M-244,-283 A380,380 0 0,1 244,-283" fill="none" stroke="#d1a857" stroke-width="1.5" opacity="0.7"/><path d="M-190,-324 A380,380 0 0,1 190,-324" fill="none" stroke="#d1a857" stroke-width="1" opacity="0.5"/><path d="M-130,-354 A380,380 0 0,1 130,-354" fill="none" stroke="#d1a857" stroke-width="0.8" opacity="0.4"/></g><text x="300" y="555" text-anchor="middle" font-family="Georgia,serif" font-size="22" fill="#f2d79f" letter-spacing="8">RAVEL</text><text x="300" y="580" text-anchor="middle" font-family="Georgia,serif" font-size="13" fill="#c6943f" letter-spacing="5">PIANO WORKS</text></svg>