<svg xmlns="http://www.w3.org/2000/svg" viewBox="0 0 600 600"><defs><linearGradient id="bg" x1="0" y1="0" x2="1" y2="1"><stop offset="0%" stop-color="#0e0810"/><stop offset="100%" stop-color="#040203"/></linearGradient><linearGradient id="au" x1="0" y1="0" x2="1" y2="1"><stop offset="0%" stop-color="#f4ddb0"/><stop offset="100%" stop-color="#8e6a2f"/></linearGradient></defs><rect width="600" height="600" fill="url(#bg)"/><!-- Schumann: romantic tendrils --><path d="M300,500 Q260,450 220,400 Q180,350 200,290 Q220,230 280,200 Q340,170 380,200 Q420,230 420,280 Q420,330 390,360 Q360,390 330,370 Q300,350 305,320 Q310,290 330,285 Q350,280 355,300" fill="none" stroke="url(#au)" stroke-width="2.5" opacity="0.9"/><path d="M300,500 Q340,450 380,400 Q420,350 400,290 Q380,230 320,200" fill="none" stroke="#c6943f" stroke-width="1.2" opacity="0.45"/><path d="M180,180 Q200,140 240,130 Q280,120 300,140" fill="none" stroke="#d1a857" stroke-width="1" opacity="0.4"/><circle cx="355" cy="300" r="5" fill="#f2d79f" opacity="0.85"/><text x="300" y="548" text-anchor="middle" font-family="Georgia,serif" font-size="22" fill="#f2d79f" letter-spacing="6">SCHUMANN</text><text x="300" y="575" text-anchor="middle" font-family="Georgia,serif" font-size="13" fill="#c6943f" letter-spacing="4">PIANO CONCERTO</text></svg>