<svg xmlns="http://www.w3.org/2000/svg" viewBox="0 0 600 600"><defs><linearGradient id="bg" x1="0" y1="0" x2="0" y2="1"><stop offset="0%" stop-color="#090b0f"/><stop offset="60%" stop-color="#0c0d08"/><stop offset="100%" stop-color="#030302"/></linearGradient><linearGradient id="sky" x1="0" y1="0" x2="0" y2="1"><stop offset="0%" stop-color="#0f1220" stop-opacity="1"/><stop offset="100%" stop-color="#090b0f" stop-opacity="0"/></linearGradient><linearGradient id="au" x1="0" y1="0" x2="1" y2="1"><stop offset="0%" stop-color="#f4ddb0"/><stop offset="100%" stop-color="#8e6a2f"/></linearGradient></defs><rect width="600" height="600" fill="url(#bg)"/><!-- New World Symphony: horizon --><rect x="0" y="0" width="600" height="340" fill="url(#sky)"/><line x1="0" y1="340" x2="600" y2="340" stroke="url(#au)" stroke-width="2.5" opacity="0.9"/><line x1="0" y1="350" x2="600" y2="350" stroke="#c6943f" stroke-width="0.8" opacity="0.4"/><line x1="0" y1="362" x2="600" y2="362" stroke="#c6943f" stroke-width="0.8" opacity="0.25"/><!-- Stars --><circle cx="120" cy="90" r="1.5" fill="#f2d79f" opacity="0.8"/><circle cx="200" cy="60" r="1" fill="#f2d79f" opacity="0.7"/><circle cx="350" cy="110" r="1.5" fill="#f2d79f" opacity="0.9"/><circle cx="450" cy="75" r="1" fill="#f2d79f" opacity="0.6"/><circle cx="520" cy="140" r="1.5" fill="#f2d79f" opacity="0.75"/><circle cx="70" cy="170" r="1" fill="#f2d79f" opacity="0.5"/><circle cx="280" cy="45" r="1" fill="#f2d79f" opacity="0.65"/><!-- Ground lines --><path d="M0,380 Q300,360 600,380" fill="none" stroke="#c6943f" stroke-width="0.8" opacity="0.3"/><path d="M0,420 Q300,400 600,420" fill="none" stroke="#c6943f" stroke-width="0.8" opacity="0.2"/><!-- Sun on horizon --><circle cx="300" cy="340" r="40" fill="none" stroke="url(#au)" stroke-width="2" opacity="0.85"/><circle cx="300" cy="340" r="20" fill="#d1a857" opacity="0.6"/><text x="300" y="510" text-anchor="middle" font-family="Georgia,serif" font-size="22" fill="#f2d79f" letter-spacing="8">DVOŘÁK</text><text x="300" y="538" text-anchor="middle" font-family="Georgia,serif" font-size="13" fill="#c6943f" letter-spacing="3">NEW WORLD SYMPHONY</text></svg>