<svg xmlns="http://www.w3.org/2000/svg" viewBox="0 0 600 600"><defs><linearGradient id="bg" x1="0" y1="0" x2="1" y2="1"><stop offset="0%" stop-color="#120f00"/><stop offset="100%" stop-color="#040302"/></linearGradient><linearGradient id="au" x1="0" y1="0" x2="1" y2="1"><stop offset="0%" stop-color="#f4ddb0"/><stop offset="100%" stop-color="#8e6a2f"/></linearGradient></defs><rect width="600" height="600" fill="url(#bg)"/><!-- Geometric tessellation --><polygon points="300,80 420,220 300,220" fill="none" stroke="url(#au)" stroke-width="1.2" opacity="0.8"/><polygon points="300,80 180,220 300,220" fill="none" stroke="url(#au)" stroke-width="1.2" opacity="0.8"/><polygon points="300,220 420,220 360,340" fill="none" stroke="url(#au)" stroke-width="1.2" opacity="0.7"/><polygon points="300,220 180,220 240,340" fill="none" stroke="url(#au)" stroke-width="1.2" opacity="0.7"/><polygon points="300,220 360,340 240,340" fill="none" stroke="url(#au)" stroke-width="1.4" opacity="0.9"/><polygon points="240,340 360,340 300,460" fill="none" stroke="url(#au)" stroke-width="1.2" opacity="0.75"/><line x1="300" y1="80" x2="300" y2="460" stroke="#d1a857" stroke-width="0.8" opacity="0.25"/><line x1="180" y1="220" x2="420" y2="220" stroke="#d1a857" stroke-width="0.8" opacity="0.25"/><line x1="240" y1="340" x2="360" y2="340" stroke="#d1a857" stroke-width="0.8" opacity="0.25"/><circle cx="300" cy="80" r="5" fill="#d1a857" opacity="0.9"/><circle cx="300" cy="460" r="5" fill="#d1a857" opacity="0.9"/><circle cx="180" cy="220" r="3" fill="#d1a857" opacity="0.7"/><circle cx="420" cy="220" r="3" fill="#d1a857" opacity="0.7"/><text x="300" y="530" text-anchor="middle" font-family="Georgia,serif" font-size="22" fill="#f2d79f" letter-spacing="8">BACH</text><text x="300" y="558" text-anchor="middle" font-family="Georgia,serif" font-size="13" fill="#c6943f" letter-spacing="5">PARTITAS</text></svg>