<svg xmlns="http://www.w3.org/2000/svg" viewBox="0 0 600 600"><defs><linearGradient id="g" x1="0" y1="0" x2="1" y2="1"><stop offset="0%" stop-color="#1a1500"/><stop offset="100%" stop-color="#050505"/></linearGradient><linearGradient id="au" x1="0" y1="0" x2="0" y2="1"><stop offset="0%" stop-color="#f4ddb0"/><stop offset="100%" stop-color="#8e6a2f"/></linearGradient></defs><rect width="600" height="600" fill="url(#g)"/><g opacity="0.9"><!-- Piano keys abstract --><rect x="80" y="160" width="28" height="240" rx="4" fill="url(#au)" opacity="0.95"/><rect x="118" y="160" width="28" height="240" rx="4" fill="url(#au)" opacity="0.8"/><rect x="156" y="160" width="28" height="240" rx="4" fill="url(#au)" opacity="0.65"/><rect x="194" y="160" width="28" height="240" rx="4" fill="url(#au)" opacity="0.95"/><rect x="232" y="160" width="28" height="240" rx="4" fill="url(#au)" opacity="0.75"/><rect x="270" y="160" width="28" height="240" rx="4" fill="url(#au)" opacity="0.9"/><rect x="308" y="160" width="28" height="240" rx="4" fill="url(#au)" opacity="0.7"/><rect x="346" y="160" width="28" height="240" rx="4" fill="url(#au)" opacity="0.85"/><rect x="384" y="160" width="28" height="240" rx="4" fill="url(#au)" opacity="0.6"/><rect x="422" y="160" width="28" height="240" rx="4" fill="url(#au)" opacity="0.95"/><rect x="460" y="160" width="28" height="240" rx="4" fill="url(#au)" opacity="0.72"/><rect x="105" y="160" width="16" height="140" rx="3" fill="#0a0800"/><rect x="181" y="160" width="16" height="140" rx="3" fill="#0a0800"/><rect x="257" y="160" width="16" height="140" rx="3" fill="#0a0800"/><rect x="295" y="160" width="16" height="140" rx="3" fill="#0a0800"/><rect x="371" y="160" width="16" height="140" rx="3" fill="#0a0800"/><rect x="447" y="160" width="16" height="140" rx="3" fill="#0a0800"/></g><line x1="60" y1="432" x2="540" y2="432" stroke="#d1a857" stroke-width="1" opacity="0.35"/><text x="300" y="520" text-anchor="middle" font-family="Georgia,serif" font-size="22" fill="#f2d79f" letter-spacing="8">GOLDBERG</text><text x="300" y="548" text-anchor="middle" font-family="Georgia,serif" font-size="14" fill="#c6943f" letter-spacing="5">VARIATIONS</text></svg>